# xmcd CD database file
#
# Track frame offsets:
#	150
#	19650
#	59250
#	78400
#	100137
#	130287
#	150000
#	184112
#	209625
#	233137
#	254262
#	265375
#	288312
#	302387
#
# Disc length: 4326 seconds
#
# Revision: 0
# Processed by: cddbd v1.5.1PL0 Copyright (c) Steve Scherf et al.
# Submitted via: CDex 1.51
#
DISCID=b510e40e
DTITLE=impulse - Jazz for Sale
DYEAR=2004
DGENRE=Jazz
TTITLE0=SAY IT/JOHN COLTRANE QUARTET
TTITLE1=STOLEN MOMENTS/OLIVER NELSON
TTITLE2=TREASURE ISLAND/KEITH JARRETT
TTITLE3=ATTICA BLUES/ARCHIE SHEPP
TTITLE4=FLY ME TO THE MOON/ROY HAYNES QUARTET
TTITLE5=THE QUINTESSENCE/QUINCY JONES AND HIS ORCHESTRA
TTITLE6=TAKE THE "A" TRAIN/SHELLY MANNE
TTITLE7=SATIN DOLL/McCOY TYNER
TTITLE8=SHINY STOCKINGS/ELVIN JONES AND RICHARD DAVIS
TTITLE9=OH,LADY BE GOOD/COUNT BASIE
TTITLE10=STARDUST/BEN WEBSTER
TTITLE11=OVER THE RAINBOW/ZOOT SIMS
TTITLE12=CUTE/LIONEL HAMPTON
TTITLE13=MY ONE AND ONLY LOVE/JOHN COLTRANE AND JOHNNY HARTMAN
EXTD=YEAR: 2004
EXTT0=
EXTT1=
EXTT2=
EXTT3=
EXTT4=
EXTT5=
EXTT6=
EXTT7=
EXTT8=
EXTT9=
EXTT10=
EXTT11=
EXTT12=
EXTT13=
PLAYORDER=
